first trial																																					
nRows=13																																					
nColumns=38																																					
																																					
# SIMM Motion File Header:																																					
name Chen yuetian_10kg																																					
datacolumns 38																																					
datarows 13																																					
otherdata 1																																					
range 8.216 8.416																																					
endheader																																					
time	pelvis_tilt	pelvis_list	pelvis_rotation	pelvis_tx	pelvis_ty	pelvis_tz	hip_flexion_r	hip_adduction_r	hip_rotation_r	knee_angle_r	ankle_angle_r	subtalar_angle_r	mtp_angle_r	hip_flexion_l	hip_adduction_l	hip_rotation_l	knee_angle_l	ankle_angle_l	subtalar_angle_l	mtp_angle_l	lumbar_extension	lumbar_bending	lumbar_rotation	arm_flex_r	arm_add_r	arm_rot_r	elbow_flex_r	pro_sup_r	wrist_flex_r	wrist_dev_r	arm_flex_l	arm_add_l	arm_rot_l	elbow_flex_l	pro_sup_l	wrist_flex_l	wrist_dev_l
8.216	14.9947	-9.1799	-72.0443	0.1511	0.6986	-0.4183	45.4152	-8.0759	-3.7567	68.5149	6.721	1.3337	0	53.1575	-20.0268	31.0612	52.662	-23.7917	14.2224	0	-15.7931	-4.4154	2.9575	-3.4049	-31.6915	-15.9782	72.5376	98.999	-31.9408	14.5408	21.5114	-11.9694	-1.2473	3.4312	9.1188	-26.1754	-32.2279
8.232	15.0077	-9.2148	-71.9795	0.151	0.6987	-0.4182	45.3719	-8.0874	-3.7573	68.5085	6.7263	1.3199	0	53.1489	-20.0292	31.1325	52.6171	-23.7957	14.2354	0	-15.7686	-4.4124	2.9291	-3.3771	-31.6861	-15.9583	72.4319	99.0681	-31.9446	14.5469	21.2947	-12.003	-1.479	3.1052	9.2331	-26.0132	-32.3004
8.249	15.0181	-9.2447	-71.9228	0.151	0.6987	-0.4182	45.333	-8.0986	-3.7693	68.497	6.7284	1.3092	0	53.1343	-20.0304	31.1863	52.5776	-23.7596	14.2128	0	-15.748	-4.4127	2.9086	-3.3581	-31.675	-15.9415	72.3371	99.1358	-31.9495	14.5416	21.1247	-12.0425	-1.6921	2.8198	9.3324	-25.8971	-32.3526
8.266	15.026	-9.267	-71.8825	0.1509	0.6988	-0.4183	45.3014	-8.1041	-3.799	68.4789	6.7262	1.3009	0	53.1092	-20.037	31.2089	52.5458	-23.6658	14.147	0	-15.7318	-4.4189	2.905	-3.3571	-31.6456	-15.9272	72.2609	99.2096	-31.9492	14.5116	21.025	-12.0798	-1.893	2.5537	9.3968	-25.8462	-32.3572
8.282	15.0312	-9.2844	-71.8505	0.1508	0.6989	-0.4183	45.2742	-8.1092	-3.84	68.4557	6.7207	1.2957	0	53.0781	-20.0425	31.2141	52.5194	-23.532	14.0459	0	-15.7195	-4.4284	2.9093	-3.365	-31.6104	-15.9159	72.1957	99.2818	-31.9501	14.4701	20.9718	-12.1235	-2.075	2.3283	9.4462	-25.842	-32.3421
8.299	15.0355	-9.2968	-71.8211	0.1508	0.699	-0.4184	45.2503	-8.1209	-3.8744	68.4327	6.7135	1.2947	0	53.0469	-20.0403	31.2061	52.4958	-23.4039	13.9525	0	-15.7093	-4.4369	2.9082	-3.3688	-31.5932	-15.9097	72.137	99.3285	-31.9645	14.4352	20.9127	-12.1835	-2.2391	2.1915	9.5016	-25.8442	-32.331
8.316	15.0389	-9.3011	-71.7921	0.1508	0.6991	-0.4185	45.2309	-8.1474	-3.8936	68.4123	6.7046	1.3024	0	53.0148	-20.0217	31.1824	52.4753	-23.2877	13.8775	0	-15.7012	-4.4431	2.8949	-3.3631	-31.6145	-15.9155	72.0815	99.3273	-32.0048	14.413	20.8177	-12.2714	-2.3778	2.1826	9.5665	-25.8402	-32.3353
8.332	15.0415	-9.3004	-71.7658	0.1509	0.6992	-0.4186	45.2149	-8.1805	-3.9062	68.3921	6.6939	1.3143	0	52.9827	-19.9954	31.1457	52.4577	-23.1772	13.81	0	-15.6952	-4.4483	2.8762	-3.3535	-31.6537	-15.9263	72.0326	99.3007	-32.0586	14.3973	20.7164	-12.3755	-2.4988	2.2624	9.6373	-25.8425	-32.344
8.349	15.0449	-9.3037	-71.7441	0.1509	0.6992	-0.4187	45.1971	-8.2022	-3.9192	68.3697	6.6833	1.3189	0	52.9587	-19.9809	31.1079	52.439	-23.0998	13.76	0	-15.69	-4.4516	2.8588	-3.3432	-31.673	-15.9239	71.9956	99.293	-32.1016	14.3868	20.6458	-12.4699	-2.6258	2.3608	9.724	-25.8482	-32.3478
8.366	15.0499	-9.3151	-71.7304	0.1509	0.6993	-0.4188	45.1757	-8.2022	-3.9386	68.343	6.6739	1.3095	0	52.9481	-19.992	31.0686	52.4155	-23.0785	13.7437	0	-15.6848	-4.4534	2.8471	-3.3363	-31.6469	-15.8964	71.9758	99.3298	-32.1216	14.3822	20.6147	-12.544	-2.7763	2.4531	9.8446	-25.8557	-32.3412
8.382	15.0559	-9.3305	-71.7215	0.1509	0.6994	-0.4188	45.1526	-8.1907	-3.9584	68.3142	6.6647	1.2927	0	52.9457	-20.0148	31.0282	52.391	-23.0902	13.7448	0	-15.6803	-4.4532	2.8368	-3.3288	-31.6007	-15.8556	71.9679	99.3853	-32.1307	14.3829	20.6143	-12.6086	-2.9325	2.5643	9.9812	-25.8667	-32.3298
8.399	15.0629	-9.3469	-71.7085	0.1509	0.6995	-0.4189	45.1291	-8.1806	-3.968	68.2879	6.6545	1.2767	0	52.9436	-20.0277	30.9995	52.3731	-23.0939	13.7252	0	-15.6771	-4.4494	2.8213	-3.3123	-31.5727	-15.8185	71.9611	99.4263	-32.1406	14.3847	20.6547	-12.6709	-3.0639	2.6991	10.0904	-25.8835	-32.3206
8.416	15.0713	-9.3642	-71.6873	0.1509	0.6996	-0.4189	45.1058	-8.1766	-3.9575	68.2677	6.6424	1.2641	0	52.9416	-20.0215	30.9897	52.366	-23.08	13.6709	0	-15.6749	-4.4401	2.7952	-3.2788	-31.5838	-15.7909	71.9499	99.436	-32.1583	14.3874	20.7509	-12.728	-3.1553	2.8628	10.1486	-25.9066	-32.3225
